<svg id="Layer_1" data-name="Layer 1" xmlns="http://www.w3.org/2000/svg" viewBox="0 0 150 80"><defs><style>.cls-1{fill:#fff;}.cls-2{fill:none;}</style></defs><title>terminal-develop</title><path class="cls-1" d="M103,33H16a1,1,0,0,1,0-2h87a1,1,0,0,1,0,2Z"/><path class="cls-1" d="M96.333,41H16a1,1,0,0,1,0-2H96.333a1,1,0,0,1,0,2Z"/><path class="cls-1" d="M81.667,49H16a1,1,0,0,1,0-2H81.667a1,1,0,0,1,0,2Z"/><path class="cls-1" d="M103,57H16a1,1,0,0,1,0-2h87a1,1,0,0,1,0,2Z"/><path class="cls-1" d="M59,65H16a1,1,0,0,1,0-2H59a1,1,0,0,1,0,2Z"/><rect class="cls-2" width="150" height="80"/></svg>