<svg id="Layer_1" data-name="Layer 1" xmlns="http://www.w3.org/2000/svg" viewBox="0 0 150 80"><defs><style>.cls-1{fill:#fff;}.cls-2{fill:none;}</style></defs><title>terminal-compile</title><path class="cls-1" d="M52,56a6,6,0,1,0,6,6A6.007,6.007,0,0,0,52,56Zm0,10a4,4,0,1,1,4-4A4,4,0,0,1,52,66Z" transform="translate(0 0)"/><path class="cls-1" d="M86.713,56.395,37.934,40.842a5.639,5.639,0,0,0-.121-2.3l21.57-9.47.6,1.368,2.951-4.018-4.956-.547.6,1.367L37.011,36.708a6,6,0,1,0-1.776,8.337l5.733,6.306-1.1,1,4.749,1.518L43.553,49l-1.1,1L36.714,43.7a6.008,6.008,0,0,0,.613-.951L86.1,58.3l-.453,1.422,4.871-1.064-3.356-3.687ZM28,40a4,4,0,1,1,4,4A4,4,0,0,1,28,40Z" transform="translate(0 0)"/><path class="cls-1" d="M118,25a6,6,0,1,0,6,6A6.007,6.007,0,0,0,118,25Zm0,10a4,4,0,1,1,4-4A4,4,0,0,1,118,35Z" transform="translate(0 0)"/><path class="cls-1" d="M112.823,45.626l-.11-4.984-4.262,2.587,1.309.718-6.795,12.391a6.011,6.011,0,1,0,1.753.963l6.8-12.392ZM101,66a4,4,0,1,1,4-4A4,4,0,0,1,101,66Z" transform="translate(0 0)"/><path class="cls-1" d="M93.041,48.887,77.209,26.269a6.011,6.011,0,0,0,1.39-2.13l24.187,4.837-.293,1.464,4.723-1.6-3.745-3.292-.293,1.464L78.991,22.179c0-.06.009-.118.009-.179a6.022,6.022,0,1,0-3.431,5.414L91.4,50.034l-1.223.856L94.7,53l-.434-4.967ZM69,22a4,4,0,1,1,4,4A4,4,0,0,1,69,22Z" transform="translate(0 0)"/><rect class="cls-2" width="150" height="80"/></svg>