<svg id="Layer_1" data-name="Layer 1" xmlns="http://www.w3.org/2000/svg" viewBox="0 0 150 80"><defs><style>.cls-1{fill:none;}.cls-2{fill:#fff;}</style></defs><title>terminal-connect</title><rect class="cls-1" width="150" height="80"/><path class="cls-2" d="M34.414,45H38a1,1,0,0,0,0-2H34.414L48.707,28.707a1,1,0,0,0-1.414-1.414l-16,16a1,1,0,0,0,0,1.416l16,16a1,1,0,0,0,1.414-1.414Z"/><path class="cls-2" d="M80.285,43H69.714a1,1,0,0,0,0,2H80.285a1,1,0,0,0,0-2Z"/><path class="cls-2" d="M59.143,43H48.571a1,1,0,0,0,0,2H59.143a1,1,0,0,0,0-2Z"/><path class="cls-2" d="M102.429,44a1,1,0,0,0-1-1H90.857a1,1,0,0,0,0,2h10.571A1,1,0,0,0,102.429,44Z"/><path class="cls-2" d="M118.923,44.382a1,1,0,0,0-.217-1.09l-16-16a1,1,0,0,0-1.414,1.414L115.586,43H112a1,1,0,0,0,0,2h3.586L101.293,59.293a1,1,0,1,0,1.414,1.414l16-16A1,1,0,0,0,118.923,44.382Z"/></svg>