<?xml version="1.0" encoding="utf-8"?>
<!-- Generator: Adobe Illustrator 21.1.0, SVG Export Plug-In . SVG Version: 6.00 Build 0)  -->
<svg version="1.1" id="Layer_1" xmlns="http://www.w3.org/2000/svg" xmlns:xlink="http://www.w3.org/1999/xlink" x="0px" y="0px"
	 viewBox="0 0 112 192" style="enable-background:new 0 0 112 192;" xml:space="preserve">
<style type="text/css">
	.st0{fill:#c31442;}
</style>
<path class="st0" d="M169,32.5806v-65.1611l-57-32.5713L56-33.152L0-65.1519l-57,32.5713v65.1611l56,31.9999V127.42l-56,31.9999
	v65.1602l57,32.5713l56-31.9999l56,31.9999l57-32.5713v-65.1602L113,127.42V64.5804L169,32.5806z M-0.0001,0.5758L54.4883,31.712
	L-0.0001,62.8481l-54.4885-31.1359L-0.0001,0.5758z M83.5,143.1343L56,158.8485l-27.5-15.7142L1.5118,127.7124l54.4881-31.1366
	l54.4882,31.1366L83.5,143.1343z M55.5,33.4377V95.71L1,126.8523V64.5804L55.5,33.4377z M0.5,129.4372l27,15.4285L55,160.5801
	v62.2722L0.5,191.7094V129.4372z M57,160.5801l27.5-15.7144l27-15.4285V191.71L57,222.8523V160.5801z M56.5,95.7099V33.4377
	L111,64.5804v62.2719L56.5,95.7099z M57.5117,31.712l54.4882-31.1362l54.4886,31.1364l-54.4885,31.1359L57.5117,31.712z M57,30.8527
	v-62.2726l54.5-31.1425V-0.29L57,30.8527z M167,30.8527L112.5-0.2901v-62.2723L167-31.4199V30.8527z M55,30.8527L0.5-0.2901
	v-62.2723L55-31.4199V30.8527z M-0.5-62.5624V-0.29L-55,30.8527v-62.2726L-0.5-62.5624z M-0.5,129.4371V191.71L-55,222.8523
	v-62.2722L-0.5,129.4371z M-54.4882,223.7124L0,192.5763l54.4882,31.1361L0,254.8486L-54.4882,223.7124z M57.5118,223.7124
	L112,192.5763l54.4882,31.1361L112,254.8486L57.5118,223.7124z M167,222.8522l-54.5-31.1428v-62.2723l54.5,31.143V222.8522z"/>
</svg>
