<svg width="20" height="20" viewBox="0 0 20 20" fill="none" xmlns="http://www.w3.org/2000/svg">
<mask id="mask0_8692_34810" style="mask-type:luminance" maskUnits="userSpaceOnUse" x="0" y="0" width="20" height="20">
<path d="M20 0H0V20H20V0Z" fill="white"/>
</mask>
<g mask="url(#mask0_8692_34810)">
<path d="M2.05745 17.9417C2.40059 18.2849 2.92428 18.4949 3.66688 18.5075C4.4142 18.5201 5.33538 18.3294 6.3792 17.921C8.46501 17.1048 10.9105 15.4702 13.1904 13.1903C15.4701 10.9106 17.1043 8.46545 17.9205 6.37969C18.329 5.33572 18.5201 4.41428 18.5074 3.66688C18.4949 2.9243 18.2849 2.40059 17.9417 2.05744C17.5986 1.71443 17.0751 1.50477 16.3327 1.49219C15.5854 1.47957 14.6634 1.67014 13.6194 2.07866C11.5337 2.89488 9.08901 4.52963 6.80931 6.80931C4.52948 9.08909 2.89434 11.5342 2.07816 13.62C1.6697 14.6638 1.47957 15.5854 1.49219 16.3327C1.50477 17.0752 1.71443 17.5986 2.05745 17.9417ZM1.04729 18.9519C0.370044 18.2745 0.0806087 17.3529 0.0637748 16.3565C0.0470717 15.3647 0.297079 14.2525 0.748391 13.0991C1.65197 10.7901 3.4138 8.18452 5.79916 5.79915C8.18451 3.41379 10.7901 1.65197 13.0991 0.748387C14.2524 0.297074 15.3647 0.0470666 16.3564 0.0637754C17.3529 0.080609 18.2745 0.370044 18.9519 1.04729C19.6292 1.72467 19.919 2.64664 19.9359 3.64321C19.9526 4.6349 19.7026 5.74724 19.2512 6.90055C18.3476 9.20952 16.5858 11.8152 14.2005 14.2005C11.8151 16.5858 9.20951 18.3477 6.90056 19.2512C5.74726 19.7025 4.63489 19.9525 3.64321 19.9359C2.64664 19.919 1.72467 19.6292 1.04729 18.9519Z" fill="#FFCC25"/>
<path d="M17.9417 17.9422C18.2849 17.5991 18.4949 17.0753 18.5075 16.3328C18.5201 15.5854 18.3294 14.6643 17.921 13.6204C17.1048 11.5346 15.4702 9.08913 13.1903 6.8093C10.9106 4.52956 8.46545 2.89534 6.37969 2.07914C5.33572 1.67064 4.41428 1.47957 3.66688 1.49219C2.9243 1.50475 2.40059 1.71479 2.05744 2.05794C1.71443 2.40106 1.50477 2.9245 1.49219 3.66688C1.47957 4.41428 1.67014 5.33622 2.07866 6.38019C2.89488 8.46592 4.52963 10.9106 6.80931 13.1903C9.08909 15.4701 11.5342 17.1053 13.62 17.9215C14.6638 18.3299 15.5854 18.5201 16.3327 18.5074C17.0752 18.4948 17.5986 18.2852 17.9417 17.9422ZM18.9519 18.9523C18.2745 19.6296 17.3529 19.9191 16.3565 19.9358C15.3647 19.9526 14.2525 19.7026 13.0991 19.2513C10.7901 18.3476 8.18452 16.5858 5.79915 14.2005C3.41379 11.8151 1.65197 9.20956 0.748387 6.90055C0.297074 5.74719 0.0470666 4.63493 0.0637754 3.6432C0.080609 2.64672 0.370044 1.72514 1.04729 1.04779C1.72467 0.370408 2.64664 0.0806081 3.64321 0.063773C4.6349 0.0470899 5.74724 0.297093 6.90055 0.748387C9.20952 1.65197 11.8152 3.41382 14.2005 5.79915C16.5858 8.18449 18.3477 10.7901 19.2512 13.0991C19.7025 14.2523 19.9525 15.3648 19.9359 16.3564C19.919 17.353 19.6292 18.275 18.9519 18.9523Z" fill="#FE6703"/>
<path d="M12.1426 9.99979C12.1426 11.1833 11.1833 12.1426 9.99979 12.1426C8.81629 12.1426 7.85693 11.1833 7.85693 9.99979C7.85693 8.81629 8.81629 7.85693 9.99979 7.85693C11.1833 7.85693 12.1426 8.81629 12.1426 9.99979Z" fill="url(#paint0_linear_8692_34810)"/>
</g>
<defs>
<linearGradient id="paint0_linear_8692_34810" x1="11.5" y1="11.0014" x2="9" y2="8.50143" gradientUnits="userSpaceOnUse">
<stop stop-color="#FE6703"/>
<stop offset="1" stop-color="#FFAA00"/>
</linearGradient>
</defs>
</svg>

