<svg width="16" height="16" viewBox="0 0 16 16" fill="none" xmlns="http://www.w3.org/2000/svg">
<g clip-path="url(#clip0_143_1293)">
<path d="M8 0C3.58857 0 0 3.58857 0 8C0 12.4114 3.58857 16 8 16C12.4114 16 16 12.4114 16 8C16 3.58857 12.4114 0 8 0ZM8 14.8571C4.21714 14.8571 1.14286 11.7829 1.14286 8C1.14286 4.21714 4.21714 1.14286 8 1.14286C11.7829 1.14286 14.8571 4.21714 14.8571 8C14.8571 11.7829 11.7829 14.8571 8 14.8571Z" fill="#AB5100"/>
<path d="M11.0227 4.16577L7.99981 7.19434L4.97696 4.16577L4.16553 4.9772L7.1941 8.0001L4.16553 11.0229L4.97696 11.8343L7.99981 8.8058L11.0227 11.8343L11.8341 11.0229L8.80553 8.0001L11.8341 4.9772L11.0227 4.16577Z" fill="#AB5100"/>
</g>
<defs>
<clipPath id="clip0_143_1293">
<rect width="16" height="16" fill="white"/>
</clipPath>
</defs>
</svg>
