<svg width="490" height="190" viewBox="0 0 490 190" fill="none" xmlns="http://www.w3.org/2000/svg">
<g clip-path="url(#clip0_33_23)">
<path d="M455.26 148.48C444.41 148.48 436.47 139.69 436.47 128.84V82.57H423.04V61.9H437.55L437.33 40.92L459.04 33.41V61.91H477.82V82.58H459.04V127.43H475.67V148.49H455.25L455.26 148.48Z" fill="black"/>
<path d="M381.33 149.48C369.96 149.48 361.35 145.8 355.14 135.81L353.94 135.98C354.11 140.29 354.28 144.03 354.28 148.51H331.37V33.53L354.63 25.67V53.97C354.63 62.24 354.63 66.72 353.77 74.47L355.15 74.81C361.53 64.47 371 59.82 382.03 59.82C405.46 59.82 420.1 79.8 420.1 105.3C420.1 130.8 404.94 149.46 381.34 149.46L381.33 149.48ZM375.82 128.63C388.74 128.63 397.01 118.92 397.01 104.97C397.01 91.02 388.74 80.68 375.82 80.68C362.9 80.68 354.12 90.84 354.12 105.14C354.12 119.44 362.56 128.63 375.82 128.63Z" fill="black"/>
<path d="M262.51 149.48C239.6 149.48 224.44 130.13 224.44 104.97C224.44 79.81 239.43 59.83 263.37 59.83C274.22 59.83 283.36 64.14 289.56 74.3L290.76 73.96C290.07 66.72 290.07 61.73 290.07 53.98V33.54L313.33 25.68V148.52H290.42C290.42 144.21 290.42 140.29 290.76 135.98L289.56 135.64C283.18 145.8 273.88 149.48 262.51 149.48ZM268.88 128.63C282.15 128.63 290.59 119.27 290.59 104.97C290.59 90.67 282.15 80.68 268.88 80.68C255.79 80.85 247.69 91.19 247.69 105.14C247.69 119.09 255.79 128.63 268.88 128.63Z" fill="black"/>
<path d="M485.216 148.816C482.608 148.816 480.8 146.976 480.8 144.368C480.8 141.776 482.624 139.92 485.216 139.92C487.808 139.92 489.632 141.776 489.632 144.368C489.632 146.976 487.824 148.816 485.216 148.816ZM485.216 148.032C487.328 148.032 488.752 146.48 488.752 144.368C488.752 142.256 487.328 140.72 485.216 140.72C483.104 140.72 481.68 142.256 481.68 144.368C481.68 146.48 483.104 148.032 485.216 148.032ZM483.744 146.56V142.112H485.52C486.448 142.112 486.928 142.64 486.928 143.424C486.928 144.144 486.448 144.656 485.696 144.656H485.664L487.2 146.544V146.56H486.144L484.592 144.608H484.576V146.56H483.744ZM484.576 144.064H485.408C485.84 144.064 486.08 143.808 486.08 143.44C486.08 143.088 485.824 142.848 485.408 142.848H484.576V144.064Z" fill="black"/>
<path d="M158.184 2.16438C166.564 -2.6797 175.59 1.19557 182.359 7.97729C189.45 15.082 192.351 22.8325 187.839 31.5518C186.227 34.7812 167.209 67.721 161.407 77.0863C158.184 82.2533 156.572 88.7121 156.572 94.8479C156.572 100.984 158.184 107.443 161.407 112.933C167.209 121.975 186.227 155.238 187.839 158.467C192.351 167.509 189.128 174.291 182.681 181.396C175.267 188.823 167.854 192.698 158.828 187.854C155.605 185.917 65.3511 133.924 65.3511 133.924C66.9627 144.581 72.7648 154.269 80.1785 160.082C79.2115 160.405 34.5761 186.232 31.5058 187.854C23.0444 192.326 15.3286 189.336 8.62001 183.01C1.04465 175.867 -2.66173 167.509 2.1733 158.79C3.78498 155.56 22.8028 122.298 28.2825 113.255C31.5058 107.765 33.4398 101.63 33.4398 95.1709C33.4398 88.7121 31.5058 82.5762 28.2825 77.4092C22.8028 67.721 3.78498 34.1354 2.1733 31.2289C-2.66173 22.5096 1.22016 13.1436 7.97534 7.00847C15.6327 0.0538926 22.8028 -2.03382 31.5058 2.16438C34.0845 3.1332 124.016 56.4182 124.016 56.4182C123.049 46.0841 117.892 36.7189 109.511 30.2601C110.156 29.9372 154.96 3.45614 158.184 2.16438ZM98.2293 110.995L111.123 98.0773C112.734 96.4626 112.734 93.8791 111.123 91.9415L98.2293 79.0239C96.2953 77.0863 93.7166 77.0863 91.7826 79.0239L78.8892 91.9415C77.2775 93.5562 77.2775 96.4626 78.8892 98.0773L91.7826 110.995C93.3942 112.61 96.2953 112.61 98.2293 110.995Z" fill="#FE6703"/>
</g>
<defs>
<clipPath id="clip0_33_23">
<rect width="490" height="190" fill="white"/>
</clipPath>
</defs>
</svg>
