<svg width="16" height="16" viewBox="0 0 16 16" fill="none" xmlns="http://www.w3.org/2000/svg">
<g clip-path="url(#clip0_471_3031)">
<path d="M15.4286 0.571289H0.571429C0.257143 0.571289 0 0.828432 0 1.14272V4.57129C0 4.88557 0.257143 5.14272 0.571429 5.14272H1.14286V14.857C1.14286 15.1713 1.4 15.4284 1.71429 15.4284H14.2857C14.6 15.4284 14.8571 15.1713 14.8571 14.857V5.14272H15.4286C15.7429 5.14272 16 4.88557 16 4.57129V1.14272C16 0.828432 15.7429 0.571289 15.4286 0.571289ZM13.7143 14.2856H2.28571V5.14272H13.7143V14.2856ZM14.8571 3.99986H1.14286V1.71415H14.8571V3.99986Z" fill="white"/>
<path d="M5.14369 10.8573H10.858C11.1723 10.8573 11.4294 10.6001 11.4294 10.2859V8.00014C11.4294 7.68585 11.1723 7.42871 10.858 7.42871H5.14369C4.82941 7.42871 4.57227 7.68585 4.57227 8.00014V10.2859C4.57227 10.6001 4.82941 10.8573 5.14369 10.8573ZM5.71512 8.57157H10.2866V9.71443H5.71512V8.57157Z" fill="white"/>
</g>
<defs>
<clipPath id="clip0_471_3031">
<rect width="16" height="16" fill="white"/>
</clipPath>
</defs>
</svg>
