<svg id="Layer_1" data-name="Layer 1" xmlns="http://www.w3.org/2000/svg" viewBox="0 0 246.666 78.798">
  <title>logo-white</title>
  <path d="M223.991,73.957h24.716v3.279H223.991Z" transform="translate(-2.041 -10.489)" fill="#fff"><!-- <animate attributeType="XML" attributeName="fill-opacity" values="0;1;0" dur="1s" repeatCount="indefinite"/> --></path>
  <path d="M66.757,57.037l-.007-.014L57.273,40.48a18.958,18.958,0,0,0-2.953-3.916h0a18.092,18.092,0,0,0-17.768-4.878,22.29,22.29,0,0,1,23.406,5.28A22.551,22.551,0,0,1,63.5,41.655l2.12,3.7a14.187,14.187,0,0,1,1.135-2.618L79.18,21.051a6.812,6.812,0,0,0-1.1-8.448A6.669,6.669,0,0,0,69.7,11.495h0L48.2,24.021a14.075,14.075,0,0,1-14.18,0l-21.5-12.524A6.935,6.935,0,0,0,9,10.49a6.931,6.931,0,0,0-4.862,2.116,6.809,6.809,0,0,0-1.1,8.445L15.459,42.738a14.432,14.432,0,0,1,0,14.3L3.037,78.721a6.811,6.811,0,0,0,1.1,8.448,6.657,6.657,0,0,0,8.376,1.109L34.019,75.751a13.957,13.957,0,0,1,2.6-1.143l-3.668-2.137a21.587,21.587,0,0,1-8.155-8.261,23.367,23.367,0,0,1-1.607-18.966,19.589,19.589,0,0,0,1.839,14.121,17.621,17.621,0,0,0,6.76,6.823l16.409,9.559.006,0L69.7,88.278a6.658,6.658,0,0,0,8.377-1.109,6.812,6.812,0,0,0,1.1-8.448ZM71.3,15.63a2.653,2.653,0,0,1,3.775,0,2.708,2.708,0,0,1,0,3.807,2.654,2.654,0,0,1-3.775,0A2.708,2.708,0,0,1,71.3,15.63ZM10.913,19.436a2.654,2.654,0,0,1-3.775,0,2.708,2.708,0,0,1,0-3.807,2.653,2.653,0,0,1,3.775,0A2.708,2.708,0,0,1,10.913,19.436Zm0,64.707a2.653,2.653,0,0,1-3.775,0,2.707,2.707,0,0,1,0-3.806,2.653,2.653,0,0,1,3.775,0A2.708,2.708,0,0,1,10.913,84.143Zm38.1-33.211a5.669,5.669,0,0,0-9.558-2.71,5.787,5.787,0,0,0,0,8.136,5.64,5.64,0,0,0,2.687,1.5,7.923,7.923,0,0,1-6.7-2.265,8.122,8.122,0,0,1,0-11.419,7.959,7.959,0,0,1,11.323,0A8.072,8.072,0,0,1,49.015,50.932ZM75.078,84.143a2.653,2.653,0,0,1-3.775,0,2.707,2.707,0,0,1,0-3.806,2.653,2.653,0,0,1,3.775,0A2.708,2.708,0,0,1,75.078,84.143Z" transform="translate(-2.041 -10.489)" fill="#fff"/>
  <path d="M139.3,19.317h9.846v48.8H140.7l-1.4-4.984h-.486q-.487.608-1.094,1.276t-1.185,1.307q-.578.638-1.094,1.155a8.48,8.48,0,0,1-.76.7,10.008,10.008,0,0,1-2.735.881,20.51,20.51,0,0,1-4.194.4q-5.714,0-8.752-2.857a11.8,11.8,0,0,1-2.857-5.045,29.738,29.738,0,0,1-1.033-8.691,27.7,27.7,0,0,1,1.428-9.451,13.888,13.888,0,0,1,3.859-5.987q3.768-3.342,10.758-3.343a30.194,30.194,0,0,1,4.71.334q2.1.335,3.434.638Zm-14.161,32.03q0,6.443,2.006,8.448a4.783,4.783,0,0,0,2.34,1.307,12.881,12.881,0,0,0,3.312.4,17.652,17.652,0,0,0,3.586-.365,15.959,15.959,0,0,0,2.917-.851V41.2q-1.034-.121-2.644-.243t-3.191-.122a15.4,15.4,0,0,0-3.4.334,5.479,5.479,0,0,0-2.431,1.185,6.89,6.89,0,0,0-1.854,3.252A20.9,20.9,0,0,0,125.141,51.347Z" transform="translate(-2.041 -10.489)" fill="#fff"/>
  <path d="M191.048,49.281A27.985,27.985,0,0,1,189.5,59.34a14.186,14.186,0,0,1-4.1,6.048,13.408,13.408,0,0,1-4.741,2.4,25.511,25.511,0,0,1-7.05.82,38.427,38.427,0,0,1-6.837-.577,41.346,41.346,0,0,1-5.257-1.246l-2.674,1.337h-1.762V19.257h9.846V39.131h.486q.485-.547,1.124-1.246t1.246-1.337q.607-.638,1.155-1.185a5.079,5.079,0,0,1,.851-.729,7.447,7.447,0,0,1,2.674-.942,21.8,21.8,0,0,1,4.68-.456q5.409,0,8.144,2.553a10.849,10.849,0,0,1,2.826,5.075A31.449,31.449,0,0,1,191.048,49.281Zm-9.967,1.459q0-6.5-2.006-8.448-1.459-1.4-4.984-1.4a25.764,25.764,0,0,0-4.285.334,21.254,21.254,0,0,0-2.887.638v18.9a19.372,19.372,0,0,0,2.431.3q1.58.123,3.343.122a15.771,15.771,0,0,0,3.434-.334,5.476,5.476,0,0,0,2.461-1.185,6.463,6.463,0,0,0,1.854-3.16A20.841,20.841,0,0,0,181.081,50.74Z" transform="translate(-2.041 -10.489)" fill="#fff"/>
  <path d="M219.146,41.2h-9.481V56.331a9.825,9.825,0,0,0,.243,2.4,3.172,3.172,0,0,0,.79,1.489,2.772,2.772,0,0,0,1.458.729,11.7,11.7,0,0,0,2.249.182q1.518,0,3.191-.121t2.583-.243l-.729,6.686q-1.582.426-3.981.82a32.916,32.916,0,0,1-5.318.395,16.315,16.315,0,0,1-4.8-.608,7.389,7.389,0,0,1-3.16-1.854,7.286,7.286,0,0,1-1.763-3.191,17.458,17.458,0,0,1-.547-4.68V41.2h-4.8l.486-7.172h4.315V28.434l9.786-1.823v7.415h10.879Z" transform="translate(-2.041 -10.489)" fill="#fff"/>
</svg>
